<svg width="29" height="29" viewBox="0 0 29 29" fill="none" xmlns="http://www.w3.org/2000/svg">
<path fill-rule="evenodd" clip-rule="evenodd" d="M13 27C15.2091 27 17 25.2091 17 23C17 20.7909 15.2091 19 13 19C10.7909 19 9 20.7909 9 23C9 25.2091 10.7909 27 13 27Z" fill="white" stroke="black" stroke-width="2.5"/>
<path fill-rule="evenodd" clip-rule="evenodd" d="M12.9911 23C15.9309 23 26.4545 22.7872 23.4737 21.0372C20.493 19.2872 21.7863 11.6662 21.7863 9.83049C21.7863 5.23962 16.7277 2 12.9167 2C9.10572 2 4.04714 5.23962 4.04714 9.83049C4.04714 11.7479 4.98078 19.5 2.32483 21.0372C0.0761092 22.3388 10.1385 23 12.9911 23Z" fill="white" stroke="black" stroke-width="2.5"/>
<path fill-rule="evenodd" clip-rule="evenodd" d="M21 14C24.3137 14 27 11.3137 27 8C27 4.68629 24.3137 2 21 2C17.6863 2 15 4.68629 15 8C15 11.3137 17.6863 14 21 14Z" fill="#EC364C" stroke="white" stroke-width="3"/>
</svg>
