<svg width="116" height="64" viewBox="0 0 116 64" fill="none" xmlns="http://www.w3.org/2000/svg">
<g clip-path="url(#clip0)">
<path fill-rule="evenodd" clip-rule="evenodd" d="M23.453 12.6897C19.9481 12.6897 17.1069 9.84898 17.1069 6.34483C17.1069 2.84068 19.9481 0 23.453 0C26.9578 0 29.799 2.84068 29.799 6.34483C29.799 9.84898 26.9578 12.6897 23.453 12.6897ZM23.453 29.7931C19.9481 29.7931 17.1069 26.9524 17.1069 23.4483C17.1069 19.9441 19.9481 17.1034 23.453 17.1034C26.9578 17.1034 29.799 19.9441 29.799 23.4483C29.799 26.9524 26.9578 29.7931 23.453 29.7931ZM40.5598 29.7931C37.055 29.7931 34.2137 26.9524 34.2137 23.4483C34.2137 19.9441 37.055 17.1034 40.5598 17.1034C44.0647 17.1034 46.9059 19.9441 46.9059 23.4483C46.9059 26.9524 44.0647 29.7931 40.5598 29.7931ZM40.5598 46.8966C37.055 46.8966 34.2137 44.0559 34.2137 40.5517C34.2137 37.0476 37.055 34.2069 40.5598 34.2069C44.0647 34.2069 46.9059 37.0476 46.9059 40.5517C46.9059 44.0559 44.0647 46.8966 40.5598 46.8966ZM57.6667 46.8966C54.1618 46.8966 51.3206 44.0559 51.3206 40.5517C51.3206 37.0476 54.1618 34.2069 57.6667 34.2069C61.1715 34.2069 64.0128 37.0476 64.0128 40.5517C64.0128 44.0559 61.1715 46.8966 57.6667 46.8966ZM74.7735 46.8966C71.2687 46.8966 68.4274 44.0559 68.4274 40.5517C68.4274 37.0476 71.2687 34.2069 74.7735 34.2069C78.2784 34.2069 81.1196 37.0476 81.1196 40.5517C81.1196 44.0559 78.2784 46.8966 74.7735 46.8966ZM74.7735 29.7931C71.2687 29.7931 68.4274 26.9524 68.4274 23.4483C68.4274 19.9441 71.2687 17.1034 74.7735 17.1034C78.2784 17.1034 81.1196 19.9441 81.1196 23.4483C81.1196 26.9524 78.2784 29.7931 74.7735 29.7931ZM91.8804 29.7931C88.3755 29.7931 85.5343 26.9524 85.5343 23.4483C85.5343 19.9441 88.3755 17.1034 91.8804 17.1034C95.3852 17.1034 98.2265 19.9441 98.2265 23.4483C98.2265 26.9524 95.3852 29.7931 91.8804 29.7931ZM91.8804 12.6897C88.3755 12.6897 85.5343 9.84898 85.5343 6.34483C85.5343 2.84068 88.3755 0 91.8804 0C95.3852 0 98.2265 2.84068 98.2265 6.34483C98.2265 9.84898 95.3852 12.6897 91.8804 12.6897ZM91.8804 46.8966C88.3755 46.8966 85.5343 44.0559 85.5343 40.5517C85.5343 37.0476 88.3755 34.2069 91.8804 34.2069C95.3852 34.2069 98.2265 37.0476 98.2265 40.5517C98.2265 44.0559 95.3852 46.8966 91.8804 46.8966ZM91.8804 64C88.3755 64 85.5343 61.1593 85.5343 57.6552C85.5343 54.151 88.3755 51.3103 91.8804 51.3103C95.3852 51.3103 98.2265 54.151 98.2265 57.6552C98.2265 61.1593 95.3852 64 91.8804 64ZM23.453 46.8966C19.9481 46.8966 17.1069 44.0559 17.1069 40.5517C17.1069 37.0476 19.9481 34.2069 23.453 34.2069C26.9578 34.2069 29.799 37.0476 29.799 40.5517C29.799 44.0559 26.9578 46.8966 23.453 46.8966ZM6.34609 46.8966C2.84124 46.8966 0 44.0559 0 40.5517C0 37.0476 2.84124 34.2069 6.34609 34.2069C9.85094 34.2069 12.6922 37.0476 12.6922 40.5517C12.6922 44.0559 9.85094 46.8966 6.34609 46.8966ZM108.987 46.8966C105.482 46.8966 102.641 44.0559 102.641 40.5517C102.641 37.0476 105.482 34.2069 108.987 34.2069C112.492 34.2069 115.333 37.0476 115.333 40.5517C115.333 44.0559 112.492 46.8966 108.987 46.8966ZM23.453 64C19.9481 64 17.1069 61.1593 17.1069 57.6552C17.1069 54.151 19.9481 51.3103 23.453 51.3103C26.9578 51.3103 29.799 54.151 29.799 57.6552C29.799 61.1593 26.9578 64 23.453 64Z" fill="#0038FF"/>
</g>
<defs>
<clipPath id="clip0">
<rect width="115.333" height="64" fill="white"/>
</clipPath>
</defs>
</svg>
