<svg width="33" height="34" viewBox="0 0 33 34" fill="none" xmlns="http://www.w3.org/2000/svg">
<path fill-rule="evenodd" clip-rule="evenodd" d="M16.9999 7C25.1556 7 31.5414 15.5559 31.8094 15.9202C32.0635 16.2654 32.0635 16.7346 31.8094 17.0801C31.5414 17.4441 25.1556 26 16.9999 26C8.84412 26 2.45809 17.4441 2.19037 17.0798C1.93654 16.7342 1.93654 16.2654 2.19037 15.9198C2.45809 15.5559 8.84412 7 16.9999 7ZM4.24883 16.4993C5.78909 18.3558 10.9923 24.0345 16.9999 24.0345C23.0203 24.0345 28.2126 18.3587 29.7509 16.5007C28.21 14.6432 23.0072 8.96551 16.9999 8.96551C10.9794 8.96551 5.7871 14.6412 4.24883 16.4993Z" fill="black"/>
<path d="M17 11C14.2431 11 12 13.4674 12 16.5C12 19.5326 14.2431 22 17 22C19.7569 22 22 19.5326 22 16.5C22 13.4674 19.7569 11 17 11Z" fill="black"/>
</svg>
