<svg width="33" height="34" viewBox="0 0 33 34" fill="none" xmlns="http://www.w3.org/2000/svg">
<path fill-rule="evenodd" clip-rule="evenodd" d="M29.0938 5H3.90625C2.30117 5 1 6.29149 1 7.88462V27.1154C1 28.7085 2.30117 30 3.90625 30H29.0938C30.6988 30 32 28.7085 32 27.1154V7.88462C32 6.29149 30.6988 5 29.0938 5ZM2.9375 7.88462C2.9375 7.35357 3.37122 6.92308 3.90625 6.92308H29.0938C29.6288 6.92308 30.0625 7.35357 30.0625 7.88462V27.1154C30.0625 27.6464 29.6288 28.0769 29.0938 28.0769H3.90625C3.37122 28.0769 2.9375 27.6464 2.9375 27.1154V7.88462Z" fill="black"/>
<path fill-rule="evenodd" clip-rule="evenodd" d="M10.2336 17.5L13.5328 19.7649C13.6302 19.8344 13.7324 19.9238 13.8394 20.0331C13.9465 20.1424 14 20.2715 14 20.4205V21.6871C14 21.7765 13.9708 21.851 13.9124 21.9106C13.854 21.9702 13.781 22 13.6934 22C13.674 22 13.6521 21.9975 13.6277 21.9925C13.6034 21.9876 13.5718 21.9752 13.5328 21.9553L8.42336 18.4387C8.2871 18.3493 8.18248 18.2624 8.10949 18.178C8.0365 18.0935 8 17.9719 8 17.8129V17.1871C8 17.0281 8.0365 16.9065 8.10949 16.822C8.18248 16.7376 8.2871 16.6507 8.42336 16.5613L13.5328 13.0447C13.5718 13.0248 13.6034 13.0124 13.6277 13.0075C13.6521 13.0025 13.674 13 13.6934 13C13.781 13 13.854 13.0298 13.9124 13.0894C13.9708 13.149 14 13.2235 14 13.3129V14.5795C14 14.7285 13.9465 14.8576 13.8394 14.9669C13.7324 15.0762 13.6302 15.1656 13.5328 15.2351L10.2336 17.5ZM19.4672 15.2351C19.3698 15.1656 19.2676 15.0762 19.1606 14.9669C19.0535 14.8576 19 14.7285 19 14.5795V13.3129C19 13.2235 19.0292 13.149 19.0876 13.0894C19.146 13.0298 19.219 13 19.3066 13C19.326 13 19.3479 13.0025 19.3723 13.0075C19.3966 13.0124 19.4282 13.0248 19.4672 13.0447L24.5766 16.5613C24.7129 16.6507 24.8175 16.7376 24.8905 16.822C24.9635 16.9065 25 17.0281 25 17.1871V17.8129C25 17.9719 24.9635 18.0935 24.8905 18.178C24.8175 18.2624 24.7129 18.3493 24.5766 18.4387L19.4672 21.9553C19.4282 21.9752 19.3966 21.9876 19.3723 21.9925C19.3479 21.9975 19.326 22 19.3066 22C19.219 22 19.146 21.9702 19.0876 21.9106C19.0292 21.851 19 21.7765 19 21.6871V20.4205C19 20.2715 19.0535 20.1424 19.1606 20.0331C19.2676 19.9238 19.3698 19.8344 19.4672 19.7649L22.7664 17.5L19.4672 15.2351Z" fill="black"/>
</svg>
