<svg width="28" height="14" viewBox="0 0 28 14" fill="none" xmlns="http://www.w3.org/2000/svg">
<path fill-rule="evenodd" clip-rule="evenodd" d="M4.026 7.30001L8.998 10.644C9.14467 10.7467 9.29867 10.8787 9.46 11.04C9.62133 11.2013 9.702 11.392 9.702 11.612V13.482C9.702 13.614 9.658 13.724 9.57 13.812C9.482 13.9 9.372 13.944 9.24 13.944C9.21067 13.944 9.17767 13.9403 9.141 13.933C9.10433 13.9257 9.05667 13.9073 8.998 13.878L1.298 8.68601C1.09267 8.55401 0.935 8.42567 0.825 8.30101C0.714999 8.17634 0.66 7.99667 0.66 7.76201V6.83801C0.66 6.60334 0.714999 6.42367 0.825 6.29901C0.935 6.17434 1.09267 6.04601 1.298 5.91401L8.998 0.722006C9.05667 0.692672 9.10433 0.674339 9.141 0.667006C9.17767 0.659672 9.21067 0.656006 9.24 0.656006C9.372 0.656006 9.482 0.700005 9.57 0.788006C9.658 0.876006 9.702 0.986005 9.702 1.11801V2.98801C9.702 3.20801 9.62133 3.39867 9.46 3.56001C9.29867 3.72134 9.14467 3.85334 8.998 3.95601L4.026 7.30001ZM18.9133 3.95601C18.7666 3.85334 18.6126 3.72134 18.4513 3.56001C18.29 3.39867 18.2093 3.20801 18.2093 2.98801V1.11801C18.2093 0.986005 18.2533 0.876006 18.3413 0.788006C18.4293 0.700005 18.5393 0.656006 18.6713 0.656006C18.7006 0.656006 18.7336 0.659672 18.7703 0.667006C18.807 0.674339 18.8546 0.692672 18.9133 0.722006L26.6133 5.91401C26.8186 6.04601 26.9763 6.17434 27.0863 6.29901C27.1963 6.42367 27.2513 6.60334 27.2513 6.83801V7.76201C27.2513 7.99667 27.1963 8.17634 27.0863 8.30101C26.9763 8.42567 26.8186 8.55401 26.6133 8.68601L18.9133 13.878C18.8546 13.9073 18.807 13.9257 18.7703 13.933C18.7336 13.9403 18.7006 13.944 18.6713 13.944C18.5393 13.944 18.4293 13.9 18.3413 13.812C18.2533 13.724 18.2093 13.614 18.2093 13.482V11.612C18.2093 11.392 18.29 11.2013 18.4513 11.04C18.6126 10.8787 18.7666 10.7467 18.9133 10.644L23.8853 7.30001L18.9133 3.95601Z" fill="black"/>
</svg>
