<svg width="496" height="84" viewBox="0 0 496 84" fill="none" xmlns="http://www.w3.org/2000/svg">
<g clip-path="url(#clip0)">
<path fill-rule="evenodd" clip-rule="evenodd" d="M30.782 16.6552C26.1819 16.6552 22.4528 12.9268 22.4528 8.32759C22.4528 3.72839 26.1819 0 30.782 0C35.3821 0 39.1112 3.72839 39.1112 8.32759C39.1112 12.9268 35.3821 16.6552 30.782 16.6552ZM30.782 39.1034C26.1819 39.1034 22.4528 35.3751 22.4528 30.7759C22.4528 26.1767 26.1819 22.4483 30.782 22.4483C35.3821 22.4483 39.1112 26.1767 39.1112 30.7759C39.1112 35.3751 35.3821 39.1034 30.782 39.1034ZM53.2348 39.1034C48.6346 39.1034 44.9055 35.3751 44.9055 30.7759C44.9055 26.1767 48.6346 22.4483 53.2348 22.4483C57.8349 22.4483 61.564 26.1767 61.564 30.7759C61.564 35.3751 57.8349 39.1034 53.2348 39.1034ZM53.2348 61.5517C48.6346 61.5517 44.9055 57.8233 44.9055 53.2241C44.9055 48.6249 48.6346 44.8965 53.2348 44.8965C57.8349 44.8965 61.564 48.6249 61.564 53.2241C61.564 57.8233 57.8349 61.5517 53.2348 61.5517ZM75.6875 61.5517C71.0874 61.5517 67.3583 57.8233 67.3583 53.2241C67.3583 48.6249 71.0874 44.8965 75.6875 44.8965C80.2876 44.8965 84.0167 48.6249 84.0167 53.2241C84.0167 57.8233 80.2876 61.5517 75.6875 61.5517ZM98.1403 61.5517C93.5401 61.5517 89.811 57.8233 89.811 53.2241C89.811 48.6249 93.5401 44.8965 98.1403 44.8965C102.74 44.8965 106.47 48.6249 106.47 53.2241C106.47 57.8233 102.74 61.5517 98.1403 61.5517ZM98.1403 39.1034C93.5401 39.1034 89.811 35.3751 89.811 30.7759C89.811 26.1767 93.5401 22.4483 98.1403 22.4483C102.74 22.4483 106.47 26.1767 106.47 30.7759C106.47 35.3751 102.74 39.1034 98.1403 39.1034ZM120.593 39.1034C115.993 39.1034 112.264 35.3751 112.264 30.7759C112.264 26.1767 115.993 22.4483 120.593 22.4483C125.193 22.4483 128.922 26.1767 128.922 30.7759C128.922 35.3751 125.193 39.1034 120.593 39.1034ZM120.593 16.6552C115.993 16.6552 112.264 12.9268 112.264 8.32759C112.264 3.72839 115.993 0 120.593 0C125.193 0 128.922 3.72839 128.922 8.32759C128.922 12.9268 125.193 16.6552 120.593 16.6552ZM120.593 61.5517C115.993 61.5517 112.264 57.8233 112.264 53.2241C112.264 48.6249 115.993 44.8965 120.593 44.8965C125.193 44.8965 128.922 48.6249 128.922 53.2241C128.922 57.8233 125.193 61.5517 120.593 61.5517ZM120.593 84C115.993 84 112.264 80.2716 112.264 75.6724C112.264 71.0732 115.993 67.3448 120.593 67.3448C125.193 67.3448 128.922 71.0732 128.922 75.6724C128.922 80.2716 125.193 84 120.593 84ZM30.782 61.5517C26.1819 61.5517 22.4528 57.8233 22.4528 53.2241C22.4528 48.6249 26.1819 44.8965 30.782 44.8965C35.3821 44.8965 39.1112 48.6249 39.1112 53.2241C39.1112 57.8233 35.3821 61.5517 30.782 61.5517ZM8.32925 61.5517C3.72913 61.5517 0 57.8233 0 53.2241C0 48.6249 3.72913 44.8965 8.32925 44.8965C12.9294 44.8965 16.6585 48.6249 16.6585 53.2241C16.6585 57.8233 12.9294 61.5517 8.32925 61.5517ZM143.046 61.5517C138.446 61.5517 134.717 57.8233 134.717 53.2241C134.717 48.6249 138.446 44.8965 143.046 44.8965C147.646 44.8965 151.375 48.6249 151.375 53.2241C151.375 57.8233 147.646 61.5517 143.046 61.5517ZM30.782 84C26.1819 84 22.4528 80.2716 22.4528 75.6724C22.4528 71.0732 26.1819 67.3448 30.782 67.3448C35.3821 67.3448 39.1112 71.0732 39.1112 75.6724C39.1112 80.2716 35.3821 84 30.782 84Z" fill="#0038FF"/>
</g>
<path d="M205.231 67H183.199V16.672H202.783C206.191 16.672 209.119 17.08 211.567 17.896C214.063 18.712 215.911 19.816 217.111 21.208C219.415 23.8 220.567 26.728 220.567 29.992C220.567 33.928 219.319 36.856 216.823 38.776C215.911 39.448 215.287 39.88 214.951 40.072C214.615 40.216 214.015 40.48 213.151 40.864C216.271 41.536 218.743 42.952 220.567 45.112C222.439 47.224 223.375 49.864 223.375 53.032C223.375 56.536 222.175 59.632 219.775 62.32C216.943 65.44 212.095 67 205.231 67ZM191.695 37.552H202.495C208.639 37.552 211.711 35.464 211.711 31.288C211.711 28.888 210.967 27.16 209.479 26.104C207.991 25.048 205.687 24.52 202.567 24.52H191.695V37.552ZM191.695 59.152H205.015C208.135 59.152 210.511 58.672 212.143 57.712C213.823 56.704 214.663 54.832 214.663 52.096C214.663 47.632 211.087 45.4 203.935 45.4H191.695V59.152ZM281.411 33.016C281.411 41.32 277.787 46.552 270.539 48.712L283.715 67H272.915L260.891 50.08H249.731V67H241.235V16.672H259.955C267.635 16.672 273.131 17.968 276.443 20.56C279.755 23.152 281.411 27.304 281.411 33.016ZM260.315 42.376C265.115 42.376 268.379 41.632 270.107 40.144C271.835 38.656 272.699 36.28 272.699 33.016C272.699 29.704 271.811 27.448 270.035 26.248C268.259 25 265.091 24.376 260.531 24.376H249.731V42.376H260.315ZM300.818 16.672H309.314V67H300.818V16.672ZM347.727 16.672C356.751 16.672 363.687 18.88 368.535 23.296C373.383 27.664 375.807 33.76 375.807 41.584C375.807 49.408 373.455 55.6 368.751 60.16C364.047 64.72 356.847 67 347.151 67H330.447V16.672H347.727ZM367.239 41.8C367.239 30.28 360.639 24.52 347.439 24.52H338.943V59.008H348.375C354.471 59.008 359.127 57.568 362.343 54.688C365.607 51.76 367.239 47.464 367.239 41.8ZM428.816 42.52H437.312V59.728C432.56 64.96 425.768 67.576 416.936 67.576C409.496 67.576 403.256 65.128 398.216 60.232C393.224 55.336 390.728 49.144 390.728 41.656C390.728 34.168 393.272 27.928 398.36 22.936C403.496 17.944 409.688 15.448 416.936 15.448C424.184 15.448 430.208 17.56 435.008 21.784L430.472 28.264C428.504 26.584 426.512 25.432 424.496 24.808C422.528 24.136 420.224 23.8 417.584 23.8C412.496 23.8 408.224 25.456 404.768 28.768C401.312 32.032 399.584 36.352 399.584 41.728C399.584 47.056 401.264 51.352 404.624 54.616C407.984 57.832 412.04 59.44 416.792 59.44C421.592 59.44 425.6 58.408 428.816 56.344V42.52ZM491.012 16.672V24.664H464.156V37.984H488.276V45.544H464.156V59.008H491.876V67H455.66V16.672H491.012Z" fill="black"/>
<defs>
<clipPath id="clip0">
<rect width="151.375" height="84" fill="white"/>
</clipPath>
</defs>
</svg>
