<svg width="175" height="17" viewBox="0 0 175 17" fill="none" xmlns="http://www.w3.org/2000/svg">
<path fill-rule="evenodd" clip-rule="evenodd" d="M4.026 8.30001L8.998 11.644C9.14467 11.7467 9.29867 11.8787 9.46 12.04C9.62133 12.2013 9.702 12.392 9.702 12.612V14.482C9.702 14.614 9.658 14.724 9.57 14.812C9.482 14.9 9.372 14.944 9.24 14.944C9.21067 14.944 9.17767 14.9403 9.141 14.933C9.10433 14.9257 9.05667 14.9073 8.998 14.878L1.298 9.68601C1.09267 9.55401 0.935 9.42567 0.825 9.30101C0.714999 9.17634 0.66 8.99667 0.66 8.76201V7.83801C0.66 7.60334 0.714999 7.42367 0.825 7.29901C0.935 7.17434 1.09267 7.04601 1.298 6.91401L8.998 1.72201C9.05667 1.69267 9.10433 1.67434 9.141 1.66701C9.17767 1.65967 9.21067 1.65601 9.24 1.65601C9.372 1.65601 9.482 1.70001 9.57 1.78801C9.658 1.87601 9.702 1.98601 9.702 2.11801V3.98801C9.702 4.20801 9.62133 4.39867 9.46 4.56001C9.29867 4.72134 9.14467 4.85334 8.998 4.95601L4.026 8.30001ZM18.9133 4.95601C18.7666 4.85334 18.6126 4.72134 18.4513 4.56001C18.29 4.39867 18.2093 4.20801 18.2093 3.98801V2.11801C18.2093 1.98601 18.2533 1.87601 18.3413 1.78801C18.4293 1.70001 18.5393 1.65601 18.6713 1.65601C18.7006 1.65601 18.7336 1.65967 18.7703 1.66701C18.807 1.67434 18.8546 1.69267 18.9133 1.72201L26.6133 6.91401C26.8186 7.04601 26.9763 7.17434 27.0863 7.29901C27.1963 7.42367 27.2513 7.60334 27.2513 7.83801V8.76201C27.2513 8.99667 27.1963 9.17634 27.0863 9.30101C26.9763 9.42567 26.8186 9.55401 26.6133 9.68601L18.9133 14.878C18.8546 14.9073 18.807 14.9257 18.7703 14.933C18.7336 14.9403 18.7006 14.944 18.6713 14.944C18.5393 14.944 18.4293 14.9 18.3413 14.812C18.2533 14.724 18.2093 14.614 18.2093 14.482V12.612C18.2093 12.392 18.29 12.2013 18.4513 12.04C18.6126 11.8787 18.7666 11.7467 18.9133 11.644L23.8853 8.30001L18.9133 4.95601Z" fill="black"/>
<path fill-rule="evenodd" clip-rule="evenodd" d="M38.486 16C38.3247 16 38.1853 15.9413 38.068 15.824C37.9507 15.7067 37.892 15.5673 37.892 15.406V1.194C37.892 1.03267 37.9507 0.893339 38.068 0.776005C38.1853 0.658671 38.3247 0.600005 38.486 0.600005H39.388C39.5493 0.600005 39.6887 0.658671 39.806 0.776005C39.9233 0.893339 39.982 1.03267 39.982 1.194V15.406C39.982 15.5673 39.9233 15.7067 39.806 15.824C39.6887 15.9413 39.5493 16 39.388 16H38.486ZM56.7364 16C56.5311 16 56.3588 15.9303 56.2194 15.791C56.0801 15.6517 55.9591 15.5013 55.8564 15.34L48.7064 4.58201V15.406C48.7064 15.5673 48.6478 15.7067 48.5304 15.824C48.4131 15.9413 48.2738 16 48.1124 16H47.2104C47.0491 16 46.9098 15.9413 46.7924 15.824C46.6751 15.7067 46.6164 15.5673 46.6164 15.406V1.194C46.6164 1.03267 46.6751 0.893339 46.7924 0.776005C46.9098 0.658671 47.0491 0.600005 47.2104 0.600005H47.9804C48.1858 0.600005 48.3581 0.669671 48.4974 0.809005C48.6368 0.948339 48.7578 1.09867 48.8604 1.26L56.0104 12.018V1.194C56.0104 1.03267 56.0691 0.893339 56.1864 0.776005C56.3038 0.658671 56.4431 0.600005 56.6044 0.600005H57.5064C57.6678 0.600005 57.8071 0.658671 57.9244 0.776005C58.0418 0.893339 58.1004 1.03267 58.1004 1.194V15.406C58.1004 15.5673 58.0418 15.7067 57.9244 15.824C57.8071 15.9413 57.6678 16 57.5064 16H56.7364ZM74.2609 0.600005C74.4222 0.600005 74.5615 0.658671 74.6789 0.776005C74.7962 0.893339 74.8549 1.03267 74.8549 1.194V1.986C74.8549 2.14734 74.7962 2.28667 74.6789 2.404C74.5615 2.52134 74.4222 2.58 74.2609 2.58H70.1469V15.406C70.1469 15.5673 70.0882 15.7067 69.9709 15.824C69.8535 15.9413 69.7142 16 69.5529 16H68.6509C68.4895 16 68.3502 15.9413 68.2329 15.824C68.1155 15.7067 68.0569 15.5673 68.0569 15.406V2.58H63.9429C63.7815 2.58 63.6422 2.52134 63.5249 2.404C63.4075 2.28667 63.3489 2.14734 63.3489 1.986V1.194C63.3489 1.03267 63.4075 0.893339 63.5249 0.776005C63.6422 0.658671 63.7815 0.600005 63.9429 0.600005H74.2609ZM86.0213 0.600005C86.74 0.600005 87.4183 0.688004 88.0563 0.864005C88.6943 1.04001 89.2553 1.31134 89.7393 1.678C90.2233 2.04467 90.6083 2.514 90.8943 3.086C91.1803 3.65801 91.3233 4.34733 91.3233 5.154C91.3233 6.34201 91.0263 7.288 90.4323 7.992C89.8383 8.69601 89.0793 9.19467 88.1553 9.488L91.4773 15.274C91.5213 15.362 91.5433 15.4427 91.5433 15.516C91.5433 15.648 91.4956 15.7617 91.4003 15.857C91.305 15.9523 91.1913 16 91.0593 16H90.1133C89.82 16 89.6036 15.9267 89.4643 15.78C89.325 15.6333 89.226 15.5087 89.1673 15.406L85.9773 9.79601H82.1933V15.406C82.1933 15.5673 82.1346 15.7067 82.0173 15.824C81.9 15.9413 81.7606 16 81.5993 16H80.6973C80.536 16 80.3966 15.9413 80.2793 15.824C80.162 15.7067 80.1033 15.5673 80.1033 15.406V1.194C80.1033 1.03267 80.162 0.893339 80.2793 0.776005C80.3966 0.658671 80.536 0.600005 80.6973 0.600005H86.0213ZM82.1933 7.816H85.9113C86.9673 7.816 87.785 7.60701 88.3643 7.189C88.9436 6.771 89.2333 6.09268 89.2333 5.15401C89.2333 4.21533 88.9436 3.55167 88.3643 3.163C87.785 2.77434 86.9673 2.58 85.9113 2.58H82.1933V7.816ZM96.7037 6.342C96.7184 5.52067 96.8614 4.74701 97.1327 4.021C97.4041 3.295 97.7964 2.66434 98.3097 2.129C98.8231 1.59367 99.4537 1.16834 100.202 0.853005C100.95 0.53767 101.808 0.380005 102.776 0.380005C103.744 0.380005 104.602 0.53767 105.35 0.853005C106.098 1.16834 106.728 1.59367 107.242 2.129C107.755 2.66434 108.147 3.295 108.419 4.021C108.69 4.74701 108.833 5.52067 108.848 6.342C108.892 7.64734 108.892 8.95267 108.848 10.258C108.818 11.0793 108.668 11.853 108.397 12.579C108.125 13.305 107.733 13.9393 107.22 14.482C106.706 15.0247 106.079 15.45 105.339 15.758C104.598 16.066 103.744 16.22 102.776 16.22C101.808 16.22 100.953 16.066 100.213 15.758C99.4721 15.45 98.8451 15.0247 98.3317 14.482C97.8184 13.9393 97.4261 13.305 97.1547 12.579C96.8834 11.853 96.7331 11.0793 96.7037 10.258C96.6597 8.95267 96.6597 7.64734 96.7037 6.342ZM106.758 6.452C106.728 5.76267 106.615 5.16134 106.417 4.64801C106.219 4.13467 105.944 3.70934 105.592 3.372C105.24 3.03467 104.825 2.78167 104.349 2.613C103.872 2.44434 103.348 2.36 102.776 2.36C102.204 2.36 101.679 2.44434 101.203 2.613C100.726 2.78167 100.312 3.03467 99.9597 3.372C99.6077 3.70934 99.3291 4.13467 99.1237 4.64801C98.9184 5.16134 98.8084 5.76267 98.7937 6.452C98.7644 7.11201 98.7497 7.728 98.7497 8.3C98.7497 8.87201 98.7644 9.488 98.7937 10.148C98.8084 10.8373 98.9184 11.4387 99.1237 11.952C99.3291 12.4653 99.6077 12.8907 99.9597 13.228C100.312 13.5653 100.726 13.8183 101.203 13.987C101.679 14.1557 102.204 14.24 102.776 14.24C103.348 14.24 103.872 14.1557 104.349 13.987C104.825 13.8183 105.24 13.5653 105.592 13.228C105.944 12.8907 106.219 12.4653 106.417 11.952C106.615 11.4387 106.728 10.8373 106.758 10.148C106.787 9.488 106.802 8.87201 106.802 8.3C106.802 7.728 106.787 7.11201 106.758 6.452ZM121.048 0.600005C121.767 0.600005 122.445 0.691671 123.083 0.875005C123.721 1.05834 124.282 1.34067 124.766 1.722C125.25 2.10334 125.635 2.58734 125.921 3.174C126.207 3.76067 126.35 4.45733 126.35 5.264C126.35 6.07068 126.207 6.771 125.921 7.365C125.635 7.95901 125.25 8.454 124.766 8.85001C124.282 9.24601 123.721 9.53934 123.083 9.73001C122.445 9.92067 121.767 10.016 121.048 10.016H117V15.406C117 15.5673 116.942 15.7067 116.824 15.824C116.707 15.9413 116.568 16 116.406 16H115.504C115.343 16 115.204 15.9413 115.086 15.824C114.969 15.7067 114.91 15.5673 114.91 15.406V1.194C114.91 1.03267 114.969 0.893339 115.086 0.776005C115.204 0.658671 115.343 0.600005 115.504 0.600005H121.048ZM117 8.03601H120.938C121.994 8.03601 122.812 7.80867 123.391 7.354C123.971 6.89934 124.26 6.20268 124.26 5.264C124.26 4.32533 123.971 3.64334 123.391 3.218C122.812 2.79267 121.994 2.58 120.938 2.58H117V8.03601ZM140.333 12.524H132.699L131.555 15.45C131.511 15.5673 131.43 15.6883 131.313 15.813C131.195 15.9377 130.99 16 130.697 16H129.883C129.751 16 129.637 15.9523 129.542 15.857C129.446 15.7617 129.399 15.648 129.399 15.516C129.399 15.4427 129.428 15.34 129.487 15.208L134.877 1.326C134.95 1.16467 135.06 1.00334 135.207 0.842005C135.353 0.680671 135.573 0.600005 135.867 0.600005H137.187C137.48 0.600005 137.7 0.680671 137.847 0.842005C137.993 1.00334 138.103 1.16467 138.177 1.326L143.545 15.208C143.603 15.34 143.633 15.4427 143.633 15.516C143.633 15.648 143.585 15.7617 143.49 15.857C143.394 15.9523 143.281 16 143.149 16H142.335C142.041 16 141.836 15.9377 141.719 15.813C141.601 15.6883 141.521 15.5673 141.477 15.45L140.333 12.524ZM133.469 10.544H139.563L136.527 2.69L133.469 10.544ZM156.691 0.600005C156.852 0.600005 156.992 0.658671 157.109 0.776005C157.226 0.893339 157.285 1.03267 157.285 1.194V1.986C157.285 2.14734 157.226 2.28667 157.109 2.404C156.992 2.52134 156.852 2.58 156.691 2.58H152.577V15.406C152.577 15.5673 152.518 15.7067 152.401 15.824C152.284 15.9413 152.144 16 151.983 16H151.081C150.92 16 150.78 15.9413 150.663 15.824C150.546 15.7067 150.487 15.5673 150.487 15.406V2.58H146.373C146.212 2.58 146.072 2.52134 145.955 2.404C145.838 2.28667 145.779 2.14734 145.779 1.986V1.194C145.779 1.03267 145.838 0.893339 145.955 0.776005C146.072 0.658671 146.212 0.600005 146.373 0.600005H156.691ZM173.863 0.600005C174.025 0.600005 174.164 0.658671 174.281 0.776005C174.399 0.893339 174.457 1.03267 174.457 1.194V15.406C174.457 15.5673 174.399 15.7067 174.281 15.824C174.164 15.9413 174.025 16 173.863 16H172.961C172.8 16 172.661 15.9413 172.543 15.824C172.426 15.7067 172.367 15.5673 172.367 15.406V9.20201H164.623V15.406C164.623 15.5673 164.565 15.7067 164.447 15.824C164.33 15.9413 164.191 16 164.029 16H163.127C162.966 16 162.827 15.945 162.709 15.835C162.592 15.725 162.533 15.582 162.533 15.406V1.194C162.533 1.03267 162.592 0.893339 162.709 0.776005C162.827 0.658671 162.966 0.600005 163.127 0.600005H164.029C164.191 0.600005 164.33 0.658671 164.447 0.776005C164.565 0.893339 164.623 1.03267 164.623 1.194V7.222H172.367V1.194C172.367 1.03267 172.426 0.893339 172.543 0.776005C172.661 0.658671 172.8 0.600005 172.961 0.600005H173.863Z" fill="black"/>
</svg>
