<svg width="33" height="34" viewBox="0 0 33 34" fill="none" xmlns="http://www.w3.org/2000/svg">
<path fill-rule="evenodd" clip-rule="evenodd" d="M28.8488 13.8895C29.2674 13.9419 29.5814 14.2035 29.686 14.6221C29.686 14.6298 29.6928 14.6587 29.7043 14.7082C29.7712 14.9965 30 15.9814 30 17.5C30 19.0186 29.7712 20.0035 29.7043 20.2918C29.6928 20.3413 29.686 20.3702 29.686 20.3779C29.5814 20.7965 29.2674 21.0581 28.8488 21.1105L26.6512 21.4244C26.5814 21.6337 26.5814 21.6337 26.5426 21.7035C26.5233 21.7384 26.4942 21.7907 26.4419 21.8953L27.8023 23.6744C28.064 23.9884 28.064 24.4593 27.8547 24.8256C27.8547 24.8779 27.2791 25.7674 26.0233 27.0233C24.7674 28.2791 23.8779 28.8547 23.8256 28.8547C23.4593 29.064 22.9884 29.064 22.6744 28.8023L20.8953 27.4419C20.7907 27.4942 20.7384 27.5233 20.7035 27.5426C20.6337 27.5814 20.6337 27.5814 20.4244 27.6512L20.1105 29.8488C20.0581 30.2674 19.7965 30.5814 19.3779 30.686C19.3702 30.686 19.3413 30.6928 19.2918 30.7043C19.0035 30.7712 18.0186 31 16.5 31C14.9814 31 13.9965 30.7712 13.7082 30.7043C13.6587 30.6928 13.6298 30.686 13.6221 30.686C13.2035 30.5814 12.9419 30.2674 12.8895 29.8488L12.6279 27.6512C12.4741 27.5999 12.4207 27.5863 12.3694 27.5673C12.316 27.5475 12.2648 27.5219 12.1047 27.4419L10.3256 28.8023C10.0116 29.064 9.5407 29.064 9.17442 28.8547C9.12209 28.8547 8.23256 28.2791 6.97674 27.0233C5.72093 25.7674 5.14535 24.8779 5.14535 24.8256C4.93605 24.4593 4.93605 23.9884 5.19767 23.6744L6.55814 21.8953C6.50581 21.7907 6.47674 21.7384 6.45736 21.7035C6.4186 21.6337 6.4186 21.6337 6.34884 21.4244L4.15116 21.1105C3.73256 21.0581 3.4186 20.7965 3.31395 20.3779C3.31395 20.3702 3.30723 20.3413 3.29574 20.2918C3.22876 20.0035 3 19.0186 3 17.5C3 15.9814 3.22876 14.9965 3.29574 14.7082C3.30723 14.6587 3.31395 14.6298 3.31395 14.6221C3.4186 14.2035 3.73256 13.9419 4.15116 13.8895L6.34884 13.6279C6.40012 13.4741 6.41371 13.4207 6.4327 13.3694C6.45247 13.316 6.47809 13.2648 6.55814 13.1047L5.19767 11.3256C4.93605 11.0116 4.93605 10.5407 5.14535 10.1744C5.14535 10.1221 5.72093 9.23256 6.97674 7.97674C8.23256 6.72093 9.12209 6.14535 9.17442 6.14535C9.5407 5.93605 10.0116 5.93605 10.3256 6.19767L12.1047 7.55814C12.2093 7.50581 12.2616 7.47674 12.2965 7.45736C12.3663 7.4186 12.3663 7.4186 12.5756 7.34884L12.8895 5.15116C12.9419 4.73256 13.2035 4.4186 13.6221 4.31395C13.6298 4.31395 13.6587 4.30723 13.7082 4.29574C13.9965 4.22876 14.9814 4 16.5 4C18.0186 4 19.0035 4.22876 19.2918 4.29574C19.3413 4.30723 19.3702 4.31395 19.3779 4.31395C19.7965 4.4186 20.0581 4.73256 20.1105 5.15116L20.4244 7.34884C20.6337 7.4186 20.6337 7.4186 20.7035 7.45736C20.7384 7.47674 20.7907 7.50581 20.8953 7.55814L22.6744 6.19767C22.9884 5.93605 23.4593 5.93605 23.8256 6.14535C23.8779 6.14535 24.7674 6.72093 26.0233 7.97674C27.2791 9.23256 27.8547 10.1221 27.8547 10.1744C28.064 10.5407 28.064 11.0116 27.8023 11.3256L26.4419 13.1047C26.4942 13.2093 26.5233 13.2616 26.5426 13.2965C26.5814 13.3663 26.5814 13.3663 26.6512 13.5756L28.8488 13.8895ZM25.7616 19.4884L27.8547 19.2267C27.907 18.8081 27.9593 18.2326 27.9593 17.5C27.9593 16.7674 27.907 16.1919 27.8547 15.7733L25.7616 15.5116C25.3953 15.4593 25.0814 15.1977 24.9767 14.8314C24.7816 14.2458 24.7482 14.1861 24.6503 14.011C24.5907 13.9044 24.5072 13.7551 24.3488 13.4186C24.1919 13.0523 24.2442 12.686 24.4535 12.3721L25.7616 10.6977C25.716 10.643 25.6673 10.5835 25.6151 10.5198C25.3676 10.218 25.0426 9.82163 24.6105 9.38953C24.196 8.97502 23.8471 8.69186 23.5639 8.462C23.4897 8.4017 23.4199 8.34507 23.3547 8.2907L21.6802 9.54651C21.3663 9.75581 20.9477 9.80814 20.5814 9.65116C20.2016 9.47394 20.0669 9.40697 19.9282 9.34948C19.7802 9.28816 19.6278 9.23763 19.1686 9.07558C18.8023 8.97093 18.5407 8.60465 18.4884 8.23837L18.2267 6.14535C17.8081 6.09302 17.2326 6.0407 16.5 6.0407C15.7674 6.0407 15.1919 6.09302 14.7733 6.14535L14.5116 8.23837C14.4593 8.60465 14.1977 8.97093 13.8314 9.07558C13.5614 9.17089 13.3974 9.22279 13.2781 9.26058C13.0043 9.34727 12.9652 9.35963 12.4186 9.65116C12.0523 9.80814 11.686 9.75581 11.3721 9.54651L9.69767 8.2907C9.60704 8.36623 9.50332 8.44612 9.38904 8.53414C9.10746 8.75104 8.76173 9.01734 8.38953 9.38953C8.01734 9.76173 7.75104 10.1075 7.53414 10.389C7.44612 10.5033 7.36623 10.607 7.2907 10.6977L8.54651 12.3721C8.75581 12.686 8.80814 13.0523 8.65116 13.4186C8.49419 13.7326 8.33721 14.0988 8.33721 14.0988C8.33721 14.1204 8.31064 14.1862 8.27207 14.2817C8.21689 14.4184 8.13718 14.6158 8.07558 14.8314C7.97093 15.1977 7.60465 15.4593 7.23837 15.5116L5.14535 15.7733C5.09302 16.1919 5.0407 16.7674 5.0407 17.5C5.0407 18.2326 5.09302 18.8081 5.14535 19.2267L7.23837 19.4884C7.60465 19.5407 7.97093 19.8023 8.07558 20.1686C8.17089 20.4386 8.22279 20.6026 8.26058 20.7219C8.34727 20.9957 8.35963 21.0348 8.65116 21.5814C8.80814 21.9477 8.75581 22.3663 8.54651 22.6802L7.2907 24.3547C7.34507 24.4199 7.4017 24.4897 7.462 24.5639C7.69186 24.8471 7.97502 25.196 8.38953 25.6105C8.82163 26.0426 9.21805 26.3676 9.51985 26.6151C9.58352 26.6673 9.64298 26.716 9.69767 26.7616L11.3721 25.4535C11.686 25.2442 12.0523 25.1919 12.4186 25.3488C12.7984 25.5261 12.9331 25.593 13.0718 25.6505C13.2198 25.7118 13.3723 25.7624 13.8314 25.9244C14.1977 26.0291 14.4593 26.3953 14.5116 26.7616L14.7733 28.8547C15.1919 28.907 15.7674 28.9593 16.5 28.9593C17.2326 28.9593 17.8081 28.907 18.2267 28.8547L18.4884 26.7616C18.5407 26.3953 18.8023 26.0291 19.1686 25.9244C19.6408 25.767 19.771 25.728 19.8956 25.6755C20.0195 25.6232 20.1378 25.5576 20.5814 25.3488C20.9477 25.1919 21.3663 25.2442 21.6802 25.4535L23.3547 26.7616C23.6686 26.5 24.0872 26.1337 24.6105 25.6105C25.0426 25.1784 25.3676 24.7819 25.6151 24.4801C25.6673 24.4165 25.716 24.357 25.7616 24.3023L24.4535 22.6802C24.2442 22.3663 24.1919 21.9477 24.3488 21.5814C24.5261 21.2016 24.593 21.0669 24.6505 20.9282C24.7118 20.7802 24.7624 20.6278 24.9244 20.1686C25.0291 19.8023 25.3953 19.5407 25.7616 19.4884Z" fill="#010002"/>
<path fill-rule="evenodd" clip-rule="evenodd" d="M10 17.5C10 13.9065 12.9065 11 16.5 11C20.0935 11 23 13.9065 23 17.5C23 21.0935 20.0935 24 16.5 24C12.9065 24 10 21.0935 10 17.5ZM12.061 17.5C12.061 19.9837 14.0163 21.939 16.5 21.939C18.9837 21.939 20.939 19.9837 20.939 17.5C20.939 15.0163 18.9837 13.061 16.5 13.061C14.0163 13.061 12.061 15.0163 12.061 17.5Z" fill="#010002"/>
</svg>
