<svg width="170" height="170" viewBox="0 0 170 170" fill="none" xmlns="http://www.w3.org/2000/svg">
<rect width="170" height="170" rx="38" fill="#0038FF"/>
<g clip-path="url(#clip0)">
<path fill-rule="evenodd" clip-rule="evenodd" d="M49.4019 65.2031C45.7552 65.2031 42.799 62.2475 42.799 58.6016C42.799 54.9556 45.7552 52 49.4019 52C53.0486 52 56.0048 54.9556 56.0048 58.6016C56.0048 62.2475 53.0486 65.2031 49.4019 65.2031ZM49.4019 82.9986C45.7552 82.9986 42.799 80.043 42.799 76.397C42.799 72.7511 45.7552 69.7955 49.4019 69.7955C53.0486 69.7955 56.0048 72.7511 56.0048 76.397C56.0048 80.043 53.0486 82.9986 49.4019 82.9986ZM67.201 82.9986C63.5543 82.9986 60.5981 80.043 60.5981 76.397C60.5981 72.7511 63.5543 69.7955 67.201 69.7955C70.8476 69.7955 73.8038 72.7511 73.8038 76.397C73.8038 80.043 70.8476 82.9986 67.201 82.9986ZM67.201 100.794C63.5543 100.794 60.5981 97.8385 60.5981 94.1925C60.5981 90.5466 63.5543 87.591 67.201 87.591C70.8476 87.591 73.8038 90.5466 73.8038 94.1925C73.8038 97.8385 70.8476 100.794 67.201 100.794ZM85 100.794C81.3533 100.794 78.3971 97.8385 78.3971 94.1925C78.3971 90.5466 81.3533 87.591 85 87.591C88.6467 87.591 91.6029 90.5466 91.6029 94.1925C91.6029 97.8385 88.6467 100.794 85 100.794ZM102.799 100.794C99.1524 100.794 96.1962 97.8385 96.1962 94.1925C96.1962 90.5466 99.1524 87.591 102.799 87.591C106.446 87.591 109.402 90.5466 109.402 94.1925C109.402 97.8385 106.446 100.794 102.799 100.794ZM102.799 82.9986C99.1524 82.9986 96.1962 80.043 96.1962 76.397C96.1962 72.7511 99.1524 69.7955 102.799 69.7955C106.446 69.7955 109.402 72.7511 109.402 76.397C109.402 80.043 106.446 82.9986 102.799 82.9986ZM120.598 82.9986C116.951 82.9986 113.995 80.043 113.995 76.397C113.995 72.7511 116.951 69.7955 120.598 69.7955C124.245 69.7955 127.201 72.7511 127.201 76.397C127.201 80.043 124.245 82.9986 120.598 82.9986ZM120.598 65.2031C116.951 65.2031 113.995 62.2475 113.995 58.6016C113.995 54.9556 116.951 52 120.598 52C124.245 52 127.201 54.9556 127.201 58.6016C127.201 62.2475 124.245 65.2031 120.598 65.2031ZM120.598 100.794C116.951 100.794 113.995 97.8385 113.995 94.1925C113.995 90.5466 116.951 87.591 120.598 87.591C124.245 87.591 127.201 90.5466 127.201 94.1925C127.201 97.8385 124.245 100.794 120.598 100.794ZM120.598 118.59C116.951 118.59 113.995 115.634 113.995 111.988C113.995 108.342 116.951 105.386 120.598 105.386C124.245 105.386 127.201 108.342 127.201 111.988C127.201 115.634 124.245 118.59 120.598 118.59ZM49.4019 100.794C45.7552 100.794 42.799 97.8385 42.799 94.1925C42.799 90.5466 45.7552 87.591 49.4019 87.591C53.0486 87.591 56.0048 90.5466 56.0048 94.1925C56.0048 97.8385 53.0486 100.794 49.4019 100.794ZM31.6029 100.794C27.9562 100.794 25 97.8385 25 94.1925C25 90.5466 27.9562 87.591 31.6029 87.591C35.2495 87.591 38.2057 90.5466 38.2057 94.1925C38.2057 97.8385 35.2495 100.794 31.6029 100.794ZM138.397 100.794C134.75 100.794 131.794 97.8385 131.794 94.1925C131.794 90.5466 134.75 87.591 138.397 87.591C142.044 87.591 145 90.5466 145 94.1925C145 97.8385 142.044 100.794 138.397 100.794ZM49.4019 118.59C45.7552 118.59 42.799 115.634 42.799 111.988C42.799 108.342 45.7552 105.386 49.4019 105.386C53.0486 105.386 56.0048 108.342 56.0048 111.988C56.0048 115.634 53.0486 118.59 49.4019 118.59Z" fill="white"/>
</g>
<defs>
<clipPath id="clip0">
<rect width="120" height="66.5896" fill="white" transform="translate(25 52)"/>
</clipPath>
</defs>
</svg>
