<svg width="108" height="108" viewBox="0 0 108 108" fill="none" xmlns="http://www.w3.org/2000/svg">
<g clip-path="url(#clip0)">
<g clip-path="url(#clip1)">
<path d="M54 107.333C31.5867 107.333 11.4311 93.1555 3.8178 72.0489C3.72002 71.84 3.64891 71.6266 3.60002 71.4089C1.65335 65.7911 0.666687 59.9378 0.666687 54C0.666687 48.0622 1.65335 42.2089 3.60002 36.5911C3.64891 36.3733 3.72446 36.16 3.8178 35.9511C11.4311 14.84 31.5867 0.666656 54 0.666656C76.4089 0.666656 96.5645 14.84 104.182 35.9467C104.28 36.16 104.356 36.3778 104.404 36.5955C106.347 42.2089 107.333 48.0667 107.333 54C107.333 59.9378 106.347 65.7911 104.404 71.4044C104.356 71.6222 104.28 71.8355 104.182 72.0489C96.5689 93.1555 76.4134 107.333 54 107.333ZM11.8489 74C19.5778 90.2844 35.8578 100.667 54 100.667C72.1422 100.667 88.4222 90.28 96.1511 74H89.3334C89.28 74.0044 89.1289 74.0089 88.9867 74.0089C84.8711 74.0089 81.4134 70.9733 80.7689 66.9511L64.2533 70.2533L51.6756 80.64C50.4134 81.68 48.8267 82.2578 47.2045 82.2578C45.3334 82.2578 43.52 81.4933 42.2045 80.1555L29.7645 70.6666H25.6178C24.04 72.7467 21.5645 74.0044 18.9378 74.0089C18.8045 74.0089 18.6711 74.0044 18.5334 74H11.8489ZM30.8889 64C31.6134 64 32.3334 64.2444 32.9111 64.6844L46.4622 75.0222C46.6311 75.1511 46.7956 75.2978 46.9378 75.4667C47.0267 75.5644 47.1289 75.5867 47.2 75.5867C47.2845 75.5867 47.36 75.56 47.4267 75.5022L60.3378 64.84C60.5067 64.6667 60.6933 64.5155 60.8933 64.3822L66.36 59.8667C66.5156 59.7378 66.5511 59.5289 66.4533 59.3555L57.7245 49.6533L56.0889 50.3467C54.9022 50.8355 53.6578 51.0844 52.3778 51.0844C51.0089 51.0844 49.6845 50.8044 48.4445 50.2489C46.0445 49.1778 44.1378 47.1511 43.2134 44.6889C42.2 42.0889 42.3245 39.2444 43.4934 36.7689C43.1956 36.6978 42.8889 36.6667 42.5778 36.6667C41.9911 36.6667 41.4133 36.7778 40.8622 37L27.3289 42.7644L27.3334 64H30.8889ZM88.1556 40.96C87.6667 41.2622 87.36 41.7511 87.3245 42.2978L87.3289 65.9067C87.3778 66.64 88.1733 67.3422 89.0667 67.3422C89.0933 67.3422 89.2089 67.3378 89.24 67.3378H98.7111C100.009 63.0089 100.662 58.5289 100.662 54.0044C100.662 49.48 100.004 45 98.7111 40.6711H89.3334L89.1778 40.6667C89.04 40.6667 88.9022 40.6844 88.7556 40.7155C88.5645 40.8133 88.3645 40.8978 88.1556 40.96ZM18.6667 67.3333L18.8445 67.3378C19.8311 67.3378 20.6178 66.6355 20.6711 65.7066L20.6667 42.0933C20.6178 41.3467 19.8445 40.6578 18.9467 40.6578L9.28446 40.6667C7.99113 45 7.33335 49.48 7.33335 54C7.33335 58.52 7.99113 63 9.28446 67.3333H18.6667ZM71.5378 55.0311C71.5956 55.0978 71.6489 55.16 71.7022 55.2267C73.1911 57.1555 73.5422 59.5911 72.8445 61.7378L80.6667 60.1733V42.0933C80.7289 41.0044 80.9733 39.9822 81.3822 39.0489L65.3734 32.7422C64.8 32.5289 64.1734 32.4133 63.5289 32.4133C62.6667 32.4133 61.8089 32.6222 61.0445 33.0178L50.9556 38.0489C49.4711 38.8355 48.8045 40.6755 49.4356 42.3022C49.7511 43.1378 50.3734 43.8044 51.16 44.1555C51.5378 44.3244 51.96 44.4133 52.3778 44.4133C52.7733 44.4133 53.1556 44.3378 53.5156 44.1911L63.5334 39.9555C63.9467 39.7822 64.3822 39.6933 64.8311 39.6933C66.1733 39.6933 67.3778 40.4933 67.9022 41.7289C68.6178 43.4222 67.8222 45.3822 66.1333 46.0978L64.2222 46.9067L71.5378 55.0311ZM19.0356 33.9911C21.2667 33.9911 23.3956 34.92 24.9556 36.5333L38.3111 30.8444C39.7156 30.28 41.1422 30 42.5911 30C44.7422 30 46.8089 30.6089 48.6222 31.7644L58.0222 27.0755C59.6889 26.2089 61.6 25.7467 63.5156 25.7467C64.9734 25.7467 66.4089 26.0089 67.7689 26.52L87.2533 34.1955C87.8578 34.0578 88.4711 33.9911 89.08 33.9911C89.2222 33.9911 89.36 33.9955 89.5022 34H96.1511C88.4222 17.7155 72.1422 7.33332 54 7.33332C35.8578 7.33332 19.5778 17.72 11.8489 34H18.6667C18.7245 33.9955 18.88 33.9911 19.0356 33.9911Z" fill="white"/>
</g>
</g>
<defs>
<clipPath id="clip0">
<rect width="106.667" height="106.667" fill="white" transform="translate(0.666687 0.666656)"/>
</clipPath>
<clipPath id="clip1">
<rect width="106.667" height="106.667" fill="white" transform="translate(0.666687 0.666656)"/>
</clipPath>
</defs>
</svg>
